<svg id="svg" version="1.1" width="400" height="400" viewBox="0 0 400 400" xmlns="http://www.w3.org/2000/svg" xmlns:xlink="http://www.w3.org/1999/xlink" ><g id="svgg"><path id="path0" d="M0.000 200.000 L 0.000 400.000 200.000 400.000 L 400.000 400.000 400.000 200.000 L 400.000 0.000 200.000 0.000 L 0.000 0.000 0.000 200.000 M27.641 67.713 C 29.817 69.174,29.323 72.800,26.948 72.800 C 26.607 72.800,25.465 73.655,24.411 74.700 C 23.357 75.745,22.203 76.832,21.847 77.116 C 20.481 78.205,21.055 91.600,22.468 91.600 C 22.989 91.600,24.800 93.476,24.800 94.015 C 24.800 94.221,25.468 94.669,26.285 95.010 C 29.870 96.508,30.297 99.546,27.094 100.764 C 25.426 101.399,22.400 100.173,22.400 98.862 C 22.400 98.645,22.258 98.407,22.083 98.333 C 21.456 98.069,19.600 95.309,19.600 94.640 C 19.600 94.213,18.923 93.656,17.805 93.161 C 15.289 92.048,15.200 91.731,15.200 83.847 L 15.200 76.841 16.538 75.820 C 17.274 75.259,18.179 74.800,18.550 74.800 C 18.921 74.800,19.326 74.485,19.449 74.100 C 20.519 70.750,23.797 67.137,26.041 66.833 C 26.173 66.815,26.893 67.211,27.641 67.713 M343.725 67.395 C 344.508 67.722,345.469 68.532,345.860 69.195 C 346.252 69.858,346.724 70.400,346.908 70.400 C 347.093 70.400,347.672 71.367,348.195 72.550 C 348.869 74.074,349.425 74.770,350.108 74.941 C 350.637 75.074,351.549 75.560,352.135 76.020 L 353.200 76.858 353.200 83.954 C 353.200 91.387,352.855 92.800,351.038 92.800 C 350.197 92.800,348.400 94.391,348.400 95.136 C 348.400 95.509,347.694 96.669,346.832 97.713 C 345.969 98.757,345.201 99.798,345.124 100.027 C 344.913 100.660,342.025 101.190,340.971 100.789 C 338.100 99.697,339.372 94.800,342.527 94.800 C 342.886 94.800,343.459 94.260,343.800 93.600 C 344.141 92.940,344.551 92.400,344.710 92.400 C 344.870 92.399,345.495 91.973,346.100 91.453 L 347.200 90.507 347.200 84.202 L 347.200 77.897 344.900 75.686 C 343.635 74.471,342.021 73.234,341.314 72.939 C 338.849 71.908,338.456 69.444,340.500 67.833 C 342.035 66.624,341.919 66.640,343.725 67.395 M332.302 99.453 C 336.297 99.870,337.669 101.592,335.631 103.631 L 334.462 104.800 184.085 104.800 L 33.709 104.800 32.655 103.745 C 30.700 101.791,32.085 99.809,35.624 99.497 C 38.663 99.228,329.743 99.185,332.302 99.453 M27.641 167.713 C 29.817 169.174,29.323 172.800,26.948 172.800 C 26.607 172.800,25.465 173.655,24.411 174.700 C 23.357 175.745,22.203 176.832,21.847 177.116 C 21.298 177.553,21.200 178.627,21.200 184.190 L 21.200 190.748 22.776 191.874 C 23.643 192.493,24.433 193.304,24.532 193.676 C 24.632 194.048,25.401 194.640,26.242 194.992 C 29.870 196.508,30.317 199.539,27.094 200.764 C 25.552 201.350,22.400 200.187,22.400 199.032 C 22.400 198.908,21.995 198.345,21.500 197.781 C 21.005 197.216,20.240 196.014,19.800 195.109 C 19.221 193.918,18.628 193.339,17.655 193.014 C 15.318 192.235,15.200 191.798,15.200 183.944 L 15.200 176.841 16.538 175.820 C 17.274 175.259,18.179 174.800,18.550 174.800 C 18.921 174.800,19.326 174.485,19.449 174.100 C 20.519 170.750,23.797 167.137,26.041 166.833 C 26.173 166.815,26.893 167.211,27.641 167.713 M344.279 167.636 C 344.763 167.816,345.480 168.467,345.874 169.082 C 346.267 169.697,346.823 170.382,347.109 170.605 C 347.395 170.828,347.872 171.728,348.168 172.605 C 348.579 173.822,349.073 174.376,350.253 174.942 C 353.287 176.396,353.200 176.128,353.200 183.987 C 353.200 191.384,352.853 192.800,351.038 192.800 C 350.197 192.800,348.400 194.391,348.400 195.136 C 348.400 195.509,347.694 196.669,346.832 197.713 C 345.969 198.757,345.201 199.798,345.124 200.027 C 344.913 200.660,342.025 201.190,340.971 200.789 C 338.100 199.697,339.372 194.800,342.527 194.800 C 342.886 194.800,343.459 194.260,343.800 193.600 C 344.141 192.940,344.551 192.400,344.710 192.400 C 344.870 192.399,345.495 191.973,346.100 191.453 L 347.200 190.507 347.200 184.069 C 347.200 178.559,347.105 177.557,346.539 177.116 C 346.176 176.832,345.183 175.915,344.334 175.077 C 343.484 174.240,342.168 173.295,341.409 172.978 C 338.851 171.909,338.420 169.471,340.500 167.837 C 341.787 166.826,342.073 166.810,344.279 167.636 M335.272 200.200 C 336.852 201.379,336.943 202.319,335.607 203.654 L 334.462 204.800 184.085 204.800 L 33.709 204.800 32.655 203.745 C 30.807 201.898,31.991 199.815,35.073 199.491 C 41.952 198.767,334.277 199.458,335.272 200.200 M27.641 267.713 C 29.817 269.174,29.323 272.800,26.948 272.800 C 26.607 272.800,25.465 273.655,24.411 274.700 C 23.357 275.745,22.203 276.832,21.847 277.116 C 21.298 277.553,21.200 278.627,21.200 284.190 L 21.200 290.748 22.776 291.874 C 23.643 292.493,24.433 293.304,24.532 293.676 C 24.632 294.048,25.401 294.640,26.242 294.992 C 29.870 296.508,30.317 299.539,27.094 300.764 C 25.552 301.350,22.400 300.187,22.400 299.032 C 22.400 298.908,21.995 298.345,21.500 297.781 C 21.005 297.216,20.240 296.014,19.800 295.109 C 19.221 293.918,18.628 293.339,17.655 293.014 C 15.318 292.235,15.200 291.798,15.200 283.944 L 15.200 276.841 16.538 275.820 C 17.274 275.259,18.179 274.800,18.550 274.800 C 18.921 274.800,19.326 274.485,19.449 274.100 C 20.519 270.750,23.797 267.137,26.041 266.833 C 26.173 266.815,26.893 267.211,27.641 267.713 M344.414 267.817 C 344.972 268.100,345.677 268.797,345.982 269.366 C 346.286 269.935,346.695 270.400,346.890 270.400 C 347.085 270.400,347.672 271.367,348.195 272.550 C 348.869 274.074,349.425 274.770,350.108 274.941 C 350.637 275.074,351.549 275.560,352.135 276.020 L 353.200 276.858 353.200 283.954 C 353.200 291.387,352.855 292.800,351.038 292.800 C 350.197 292.800,348.400 294.391,348.400 295.136 C 348.400 295.509,347.694 296.669,346.832 297.713 C 345.969 298.757,345.201 299.798,345.124 300.027 C 344.913 300.660,342.025 301.190,340.971 300.789 C 338.100 299.697,339.372 294.800,342.527 294.800 C 342.886 294.800,343.459 294.260,343.800 293.600 C 344.141 292.940,344.551 292.400,344.710 292.400 C 344.870 292.399,345.495 291.973,346.100 291.453 L 347.200 290.507 347.200 284.057 L 347.200 277.607 345.831 276.710 C 345.078 276.216,344.180 275.335,343.835 274.751 C 343.490 274.168,342.495 273.405,341.624 273.056 C 338.866 271.953,338.344 269.530,340.500 267.837 C 341.836 266.787,342.382 266.784,344.414 267.817 M335.272 300.200 C 336.852 301.379,336.943 302.319,335.607 303.654 L 334.462 304.800 184.261 304.800 L 34.061 304.800 32.831 303.764 C 30.830 302.081,32.050 299.818,35.135 299.487 C 41.870 298.766,334.281 299.460,335.272 300.200 " stroke="none" fill="#fcfcfc" fill-rule="evenodd"></path><path id="path1" d="M340.950 69.014 L 339.910 70.053 340.825 71.027 C 341.949 72.223,343.796 72.328,344.384 71.229 C 345.468 69.205,342.605 67.358,340.950 69.014 M24.489 69.023 C 23.256 69.886,23.303 71.510,24.571 71.828 C 26.670 72.355,28.458 70.804,27.600 69.200 C 27.088 68.243,25.714 68.165,24.489 69.023 M21.437 73.447 C 21.292 73.825,21.330 74.290,21.520 74.480 C 22.049 75.009,23.256 74.384,23.115 73.654 C 22.943 72.759,21.757 72.613,21.437 73.447 M345.352 73.381 C 345.071 74.114,345.480 74.800,346.200 74.800 C 347.023 74.800,347.335 74.045,346.785 73.382 C 346.170 72.641,345.636 72.640,345.352 73.381 M16.749 77.060 C 16.349 77.541,16.166 79.412,16.074 83.960 L 15.948 90.200 17.145 91.347 L 18.342 92.494 19.371 91.465 C 20.520 90.317,20.940 80.469,19.961 77.660 C 19.457 76.215,17.721 75.891,16.749 77.060 M348.487 77.100 C 347.881 78.577,348.153 91.200,348.800 91.609 C 349.769 92.221,350.377 92.066,351.419 90.942 C 352.653 89.610,352.926 79.778,351.790 77.580 C 351.070 76.189,348.986 75.886,348.487 77.100 M21.443 93.531 C 21.331 93.712,21.343 94.261,21.471 94.750 C 21.749 95.813,22.924 95.738,23.135 94.643 C 23.328 93.638,21.941 92.725,21.443 93.531 M345.622 93.773 C 345.217 94.262,345.419 95.600,345.899 95.600 C 346.159 95.600,347.170 94.300,347.187 93.943 C 347.214 93.400,346.038 93.273,345.622 93.773 M340.944 97.019 L 339.906 98.058 341.024 99.225 L 342.143 100.393 343.371 99.446 C 345.366 97.910,345.265 96.754,343.092 96.242 C 342.221 96.037,341.760 96.204,340.944 97.019 M23.600 97.514 C 23.600 99.731,26.977 100.600,27.752 98.582 C 28.250 97.284,27.291 96.400,25.386 96.400 C 23.699 96.400,23.600 96.462,23.600 97.514 M37.513 100.800 C 33.863 101.036,32.390 101.914,34.053 102.861 C 35.744 103.824,331.657 103.826,333.797 102.863 L 335.393 102.145 334.347 101.460 C 333.326 100.790,47.466 100.155,37.513 100.800 M24.489 169.023 C 23.256 169.886,23.303 171.510,24.571 171.828 C 26.670 172.355,28.458 170.804,27.600 169.200 C 27.088 168.243,25.714 168.165,24.489 169.023 M340.880 168.880 C 339.735 170.025,340.983 172.000,342.851 172.000 C 344.812 172.000,345.480 170.122,343.911 169.023 C 342.850 168.279,341.542 168.218,340.880 168.880 M21.437 173.447 C 21.292 173.825,21.330 174.290,21.520 174.480 C 22.049 175.009,23.256 174.384,23.115 173.654 C 22.943 172.759,21.757 172.613,21.437 173.447 M345.430 173.467 C 345.105 174.312,345.751 174.981,346.582 174.662 C 347.115 174.458,347.136 174.287,346.713 173.609 C 346.099 172.625,345.767 172.589,345.430 173.467 M16.749 177.060 C 14.729 179.489,16.127 192.000,18.419 192.000 C 20.230 192.000,21.345 181.631,19.961 177.660 C 19.457 176.215,17.721 175.891,16.749 177.060 M348.524 176.900 C 348.123 177.518,347.833 188.382,348.168 190.172 C 348.543 192.170,349.999 192.662,351.354 191.248 C 352.652 189.894,352.972 179.866,351.790 177.580 C 351.134 176.311,349.169 175.902,348.524 176.900 M21.405 193.592 C 20.874 194.452,22.019 195.752,22.705 195.067 C 23.221 194.551,23.241 194.331,22.817 193.820 C 22.225 193.107,21.752 193.031,21.405 193.592 M345.622 193.773 C 345.217 194.262,345.419 195.600,345.899 195.600 C 346.159 195.600,347.170 194.300,347.187 193.943 C 347.214 193.400,346.038 193.273,345.622 193.773 M23.867 196.667 C 22.779 197.755,25.047 200.341,26.575 199.754 C 27.599 199.361,28.095 198.125,27.600 197.200 C 27.175 196.406,24.508 196.025,23.867 196.667 M340.880 196.880 C 339.742 198.018,341.176 200.316,342.719 199.826 C 343.979 199.426,344.903 198.156,344.609 197.229 C 344.307 196.277,341.724 196.036,340.880 196.880 M37.318 200.800 C 32.252 201.109,31.738 202.831,36.545 203.395 C 42.044 204.039,332.977 203.413,334.168 202.753 L 335.335 202.107 334.350 201.461 C 333.382 200.827,47.320 200.190,37.318 200.800 M24.489 269.023 C 23.256 269.886,23.303 271.510,24.571 271.828 C 26.670 272.355,28.458 270.804,27.600 269.200 C 27.088 268.243,25.714 268.165,24.489 269.023 M340.880 268.880 C 339.735 270.025,340.983 272.000,342.851 272.000 C 344.762 272.000,345.355 270.555,344.000 269.200 C 343.105 268.305,341.608 268.152,340.880 268.880 M21.569 273.258 C 21.266 273.824,21.256 274.216,21.536 274.496 C 22.132 275.092,23.200 274.553,23.200 273.655 C 23.200 272.536,22.099 272.268,21.569 273.258 M345.345 273.000 C 345.023 273.838,345.461 274.800,346.164 274.800 C 347.053 274.800,347.287 274.129,346.717 273.216 C 346.113 272.248,345.661 272.177,345.345 273.000 M349.477 276.308 C 348.296 276.569,348.000 278.143,348.005 284.126 C 348.012 290.659,348.134 291.351,349.388 291.922 C 351.616 292.937,352.400 290.943,352.400 284.264 C 352.400 277.299,351.844 275.784,349.477 276.308 M16.749 277.060 C 14.729 279.489,16.127 292.000,18.419 292.000 C 20.230 292.000,21.345 281.631,19.961 277.660 C 19.457 276.215,17.721 275.891,16.749 277.060 M21.405 293.592 C 20.874 294.452,22.019 295.752,22.705 295.067 C 23.221 294.551,23.241 294.331,22.817 293.820 C 22.225 293.107,21.752 293.031,21.405 293.592 M345.622 293.773 C 345.217 294.262,345.419 295.600,345.899 295.600 C 346.159 295.600,347.170 294.300,347.187 293.943 C 347.214 293.400,346.038 293.273,345.622 293.773 M24.700 296.287 C 22.792 296.576,23.225 298.605,25.467 299.873 C 26.185 300.280,26.450 300.191,27.360 299.241 L 28.419 298.137 27.428 297.068 C 26.884 296.481,26.295 296.027,26.119 296.060 C 25.944 296.093,25.305 296.195,24.700 296.287 M340.944 297.019 L 339.906 298.058 341.024 299.225 L 342.143 300.393 343.371 299.446 C 345.366 297.910,345.265 296.754,343.092 296.242 C 342.221 296.037,341.760 296.204,340.944 297.019 M36.946 300.718 C 33.788 300.870,32.331 302.042,34.247 302.890 C 36.220 303.763,332.588 303.628,334.168 302.753 L 335.335 302.107 334.352 301.463 C 333.468 300.884,48.362 300.169,36.946 300.718 " stroke="none" fill="#cccccc" fill-rule="evenodd"></path><path id="path2" d="" stroke="none" fill="#f0100e4" fill-rule="evenodd"></path><path id="path3" d="" stroke="none" fill="#f0100e4" fill-rule="evenodd"></path><path id="path4" d="" stroke="none" fill="#f0100e4" fill-rule="evenodd"></path></g></svg>