<svg id="svg" version="1.1" width="400" height="400" viewBox="0 0 400 400" xmlns="http://www.w3.org/2000/svg" xmlns:xlink="http://www.w3.org/1999/xlink" ><g id="svgg"><path id="path0" d="M0.000 200.000 L 0.000 400.000 200.000 400.000 L 400.000 400.000 400.000 200.000 L 400.000 0.000 200.000 0.000 L 0.000 0.000 0.000 200.000 M362.967 85.700 C 363.654 86.757,364.172 90.422,363.716 91.000 C 362.630 92.375,362.017 92.509,361.216 91.547 C 360.142 90.259,360.065 86.142,361.100 85.357 C 362.065 84.624,362.295 84.666,362.967 85.700 M38.893 109.600 C 39.167 110.040,40.290 110.698,41.387 111.062 C 43.354 111.715,43.665 111.923,44.748 113.301 C 45.227 113.909,45.155 114.183,44.188 115.451 L 43.080 116.904 40.496 116.663 C 36.194 116.261,35.087 114.108,37.122 110.100 C 37.888 108.590,38.206 108.500,38.893 109.600 M363.345 112.655 C 364.637 113.946,364.639 114.025,363.419 115.342 C 362.221 116.634,362.080 116.640,360.700 115.453 C 359.341 114.284,359.339 114.116,360.675 112.722 C 361.991 111.348,362.038 111.347,363.345 112.655 M179.923 117.318 L 180.785 118.235 179.893 118.999 C 178.926 119.827,176.202 119.962,175.459 119.219 C 174.941 118.701,172.783 118.674,171.482 119.169 C 170.589 119.508,162.134 118.533,162.531 118.136 C 163.543 117.124,169.977 116.520,172.445 117.206 C 173.546 117.512,174.213 117.467,175.245 117.019 C 177.262 116.144,178.919 116.249,179.923 117.318 M188.651 117.453 C 190.195 118.104,190.197 118.108,189.200 118.501 C 188.650 118.718,187.797 119.084,187.304 119.313 C 186.609 119.637,186.094 119.561,184.999 118.971 L 183.589 118.212 184.494 117.515 C 185.632 116.639,186.684 116.624,188.651 117.453 M240.600 117.198 C 252.276 117.949,252.545 118.228,242.172 118.826 C 226.284 119.741,226.198 119.742,224.227 118.989 C 219.277 117.099,226.599 116.298,240.600 117.198 M273.197 117.999 C 274.597 118.387,258.936 118.949,256.410 118.601 C 254.150 118.291,254.080 118.075,256.080 117.581 C 257.548 117.219,271.621 117.562,273.197 117.999 M125.200 117.966 C 126.760 118.413,120.072 118.872,116.890 118.537 C 114.841 118.321,114.438 118.185,115.200 117.966 C 116.497 117.595,123.903 117.595,125.200 117.966 M43.600 185.200 C 44.221 186.361,43.540 187.352,41.444 188.337 C 40.464 188.798,39.551 189.524,39.416 189.951 C 39.150 190.788,38.152 191.341,37.564 190.978 C 37.131 190.710,37.083 185.999,37.506 185.346 C 38.264 184.176,42.991 184.062,43.600 185.200 M363.094 186.032 C 364.110 188.023,363.445 191.600,362.058 191.600 C 361.636 191.600,360.400 189.380,360.400 188.624 C 360.400 188.265,360.114 187.535,359.764 187.002 C 359.146 186.058,359.165 186.016,360.464 185.450 C 362.117 184.731,362.470 184.809,363.094 186.032 M367.030 195.360 C 366.887 196.262,366.662 198.130,366.529 199.511 C 366.214 202.797,366.020 202.472,365.596 197.952 C 365.232 194.080,365.486 193.028,366.674 193.484 C 367.152 193.667,367.231 194.085,367.030 195.360 M366.707 203.300 C 367.621 205.158,367.687 206.041,366.974 206.829 C 365.518 208.438,364.544 206.969,365.239 204.211 C 365.750 202.181,366.062 201.988,366.707 203.300 M34.609 203.352 C 35.904 204.646,35.783 207.600,34.435 207.600 C 32.892 207.600,32.335 206.329,33.064 204.473 C 33.798 202.604,33.835 202.578,34.609 203.352 M39.398 210.794 C 39.535 211.225,40.185 211.621,41.012 211.776 C 43.038 212.156,44.593 213.701,43.964 214.708 C 42.877 216.450,40.601 216.536,38.871 214.900 C 38.581 214.625,38.201 214.400,38.027 214.400 C 37.493 214.400,37.175 210.312,37.663 209.724 C 38.181 209.100,39.026 209.622,39.398 210.794 M363.424 211.540 C 363.559 212.343,363.745 213.280,363.837 213.622 C 364.387 215.666,358.753 216.714,357.313 214.835 C 356.573 213.871,356.665 213.695,358.500 212.546 C 359.435 211.960,360.631 210.968,361.158 210.340 C 362.321 208.956,363.055 209.345,363.424 211.540 M93.800 217.218 C 98.640 217.452,103.410 217.757,104.400 217.895 L 106.200 218.145 103.800 218.439 C 102.480 218.600,99.150 218.748,96.400 218.767 C 93.650 218.786,88.700 218.978,85.400 219.193 C 78.454 219.646,66.441 219.301,64.400 218.590 L 63.000 218.102 64.400 217.484 C 66.157 216.708,80.584 216.577,93.800 217.218 M131.400 217.414 C 138.197 217.919,136.342 218.356,124.551 219.028 C 119.937 219.291,115.120 218.755,115.807 218.055 C 116.985 216.856,121.434 216.673,131.400 217.414 M174.554 217.267 C 177.006 217.964,177.083 218.269,174.939 218.786 C 171.470 219.622,164.545 219.747,160.856 219.041 C 159.017 218.688,155.867 218.382,153.856 218.360 C 149.297 218.310,150.661 217.716,155.600 217.600 C 157.470 217.556,159.450 217.376,160.000 217.200 C 161.587 216.692,172.708 216.743,174.554 217.267 M201.200 218.000 C 201.823 218.200,200.316 218.333,197.200 218.354 C 193.837 218.377,192.396 218.261,192.800 218.000 C 193.511 217.540,199.765 217.540,201.200 218.000 M229.200 218.000 C 229.771 218.183,226.771 218.320,222.200 218.320 C 217.629 218.320,214.629 218.183,215.200 218.000 C 215.750 217.824,218.900 217.680,222.200 217.680 C 225.500 217.680,228.650 217.824,229.200 218.000 M291.600 218.000 C 292.014 218.268,291.272 218.377,289.200 218.354 C 287.094 218.330,286.498 218.225,287.200 218.000 C 288.622 217.545,290.895 217.545,291.600 218.000 M40.093 285.332 C 42.261 286.087,42.250 286.226,39.956 286.976 C 37.529 287.770,36.733 287.281,37.443 285.433 C 37.736 284.670,38.146 284.654,40.093 285.332 M363.198 285.398 C 364.019 286.387,362.689 288.099,361.499 287.586 C 361.005 287.372,360.105 287.001,359.500 286.760 C 358.895 286.519,358.400 286.194,358.400 286.038 C 358.400 285.053,362.462 284.511,363.198 285.398 M367.191 304.340 C 367.850 306.214,367.492 307.315,366.159 307.513 C 364.803 307.714,364.372 306.353,365.127 304.253 C 365.919 302.052,366.394 302.072,367.191 304.340 M38.655 310.706 C 40.049 311.606,40.483 314.167,39.400 315.100 C 38.095 316.224,37.946 316.220,36.835 315.037 L 35.930 314.074 36.742 312.237 C 37.563 310.383,37.827 310.171,38.655 310.706 M359.520 313.280 C 360.247 314.007,360.106 314.380,358.935 314.825 C 357.648 315.314,357.011 314.826,357.387 313.640 C 357.681 312.715,358.771 312.531,359.520 313.280 M82.600 317.489 C 84.799 318.756,82.762 318.955,67.903 318.924 C 52.018 318.890,48.379 318.463,54.119 317.304 C 56.646 316.794,81.676 316.957,82.600 317.489 M251.122 317.369 C 254.435 318.080,254.525 318.269,251.734 318.667 C 248.909 319.069,244.777 319.010,241.000 318.514 L 238.200 318.146 240.200 317.856 C 241.300 317.697,242.740 317.412,243.400 317.224 C 245.212 316.707,248.307 316.765,251.122 317.369 M294.905 317.353 C 298.421 318.033,298.565 318.263,295.734 318.667 C 291.524 319.267,281.819 318.848,282.568 318.098 C 283.638 317.029,290.947 316.587,294.905 317.353 M269.520 317.963 C 270.559 318.545,266.366 318.902,262.183 318.589 C 260.083 318.431,258.450 318.217,258.554 318.113 C 259.332 317.334,268.181 317.214,269.520 317.963 " stroke="none" fill="#fcfcfc" fill-rule="evenodd"></path><path id="path1" d="M361.100 85.357 C 360.065 86.142,360.142 90.259,361.216 91.547 C 362.017 92.509,362.630 92.375,363.716 91.000 C 364.172 90.422,363.654 86.757,362.967 85.700 C 362.295 84.666,362.065 84.624,361.100 85.357 M37.122 110.100 C 35.087 114.108,36.194 116.261,40.496 116.663 L 43.080 116.904 44.188 115.451 C 45.155 114.183,45.227 113.909,44.748 113.301 C 43.665 111.923,43.354 111.715,41.387 111.062 C 40.290 110.698,39.167 110.040,38.893 109.600 C 38.206 108.500,37.888 108.590,37.122 110.100 M360.675 112.722 C 359.339 114.116,359.341 114.284,360.700 115.453 C 362.080 116.640,362.221 116.634,363.419 115.342 C 364.639 114.025,364.637 113.946,363.345 112.655 C 362.038 111.347,361.991 111.348,360.675 112.722 M43.218 113.422 C 44.356 114.793,42.407 115.822,40.240 114.994 C 39.228 114.608,38.400 114.172,38.400 114.026 C 38.400 112.777,42.280 112.291,43.218 113.422 M175.245 117.019 C 174.213 117.467,173.546 117.512,172.445 117.206 C 169.977 116.520,163.543 117.124,162.531 118.136 C 162.134 118.533,170.589 119.508,171.482 119.169 C 172.783 118.674,174.941 118.701,175.459 119.219 C 176.202 119.962,178.926 119.827,179.893 118.999 L 180.785 118.235 179.923 117.318 C 178.919 116.249,177.262 116.144,175.245 117.019 M184.494 117.515 L 183.589 118.212 184.999 118.971 C 186.094 119.561,186.609 119.637,187.304 119.313 C 187.797 119.084,188.650 118.718,189.200 118.501 C 190.197 118.108,190.195 118.104,188.651 117.453 C 186.684 116.624,185.632 116.639,184.494 117.515 M223.500 117.320 C 220.589 118.470,224.663 119.756,230.327 119.474 C 240.445 118.971,249.756 118.377,249.909 118.225 C 250.872 117.261,225.821 116.403,223.500 117.320 M256.080 117.581 C 254.080 118.075,254.150 118.291,256.410 118.601 C 258.936 118.949,274.597 118.387,273.197 117.999 C 271.621 117.562,257.548 117.219,256.080 117.581 M115.200 117.966 C 114.438 118.185,114.841 118.321,116.890 118.537 C 120.072 118.872,126.760 118.413,125.200 117.966 C 123.903 117.595,116.497 117.595,115.200 117.966 M38.600 184.693 C 37.279 185.023,36.415 190.267,37.564 190.978 C 38.152 191.341,39.150 190.788,39.416 189.951 C 39.551 189.524,40.464 188.798,41.444 188.337 C 45.906 186.240,43.704 183.417,38.600 184.693 M360.464 185.450 C 359.165 186.016,359.146 186.058,359.764 187.002 C 360.114 187.535,360.400 188.265,360.400 188.624 C 360.400 189.380,361.636 191.600,362.058 191.600 C 363.445 191.600,364.110 188.023,363.094 186.032 C 362.470 184.809,362.117 184.731,360.464 185.450 M365.652 193.737 C 365.271 194.196,365.685 201.418,366.117 201.850 C 366.211 201.945,366.397 200.892,366.529 199.511 C 366.662 198.130,366.887 196.262,367.030 195.360 C 367.304 193.626,366.516 192.697,365.652 193.737 M365.239 204.211 C 364.544 206.969,365.518 208.438,366.974 206.829 C 367.687 206.041,367.621 205.158,366.707 203.300 C 366.062 201.988,365.750 202.181,365.239 204.211 M33.064 204.473 C 32.335 206.329,32.892 207.600,34.435 207.600 C 35.783 207.600,35.904 204.646,34.609 203.352 C 33.835 202.578,33.798 202.604,33.064 204.473 M37.663 209.724 C 37.175 210.312,37.493 214.400,38.027 214.400 C 38.201 214.400,38.581 214.625,38.871 214.900 C 40.601 216.536,42.877 216.450,43.964 214.708 C 44.593 213.701,43.038 212.156,41.012 211.776 C 40.185 211.621,39.535 211.225,39.398 210.794 C 39.026 209.622,38.181 209.100,37.663 209.724 M361.158 210.340 C 360.631 210.968,359.435 211.960,358.500 212.546 C 356.665 213.695,356.573 213.871,357.313 214.835 C 358.753 216.714,364.387 215.666,363.837 213.622 C 363.745 213.280,363.559 212.343,363.424 211.540 C 363.055 209.345,362.321 208.956,361.158 210.340 M64.400 217.484 L 63.000 218.102 64.400 218.590 C 66.441 219.301,78.454 219.646,85.400 219.193 C 88.700 218.978,93.650 218.786,96.400 218.767 C 99.150 218.748,102.480 218.600,103.800 218.439 L 106.200 218.145 104.400 217.895 C 96.284 216.765,66.715 216.461,64.400 217.484 M117.329 217.311 C 115.359 218.069,115.400 218.272,117.629 218.807 C 120.346 219.459,137.628 218.563,135.200 217.897 C 132.391 217.125,118.955 216.685,117.329 217.311 M160.000 217.200 C 159.450 217.376,157.470 217.556,155.600 217.600 C 150.661 217.716,149.297 218.310,153.856 218.360 C 155.867 218.382,159.017 218.688,160.856 219.041 C 165.713 219.971,177.885 219.184,176.539 218.027 C 175.241 216.910,162.841 216.290,160.000 217.200 M192.800 218.000 C 192.396 218.261,193.837 218.377,197.200 218.354 C 200.316 218.333,201.823 218.200,201.200 218.000 C 199.765 217.540,193.511 217.540,192.800 218.000 M215.200 218.000 C 214.629 218.183,217.629 218.320,222.200 218.320 C 226.771 218.320,229.771 218.183,229.200 218.000 C 228.650 217.824,225.500 217.680,222.200 217.680 C 218.900 217.680,215.750 217.824,215.200 218.000 M287.200 218.000 C 286.498 218.225,287.094 218.330,289.200 218.354 C 291.272 218.377,292.014 218.268,291.600 218.000 C 290.895 217.545,288.622 217.545,287.200 218.000 M37.443 285.433 C 36.733 287.281,37.529 287.770,39.956 286.976 C 42.250 286.226,42.261 286.087,40.093 285.332 C 38.146 284.654,37.736 284.670,37.443 285.433 M359.500 285.320 C 358.895 285.559,358.400 285.882,358.400 286.038 C 358.400 286.194,358.895 286.519,359.500 286.760 C 360.105 287.001,361.005 287.372,361.499 287.586 C 362.247 287.908,362.508 287.807,363.047 286.985 C 364.251 285.146,362.280 284.221,359.500 285.320 M365.127 304.253 C 364.372 306.353,364.803 307.714,366.159 307.513 C 367.492 307.315,367.850 306.214,367.191 304.340 C 366.394 302.072,365.919 302.052,365.127 304.253 M36.742 312.237 L 35.930 314.074 36.835 315.037 C 37.946 316.220,38.095 316.224,39.400 315.100 C 40.440 314.204,40.442 314.193,39.777 312.600 C 38.622 309.830,37.848 309.737,36.742 312.237 M357.387 313.640 C 357.011 314.826,357.648 315.314,358.935 314.825 C 360.106 314.380,360.247 314.007,359.520 313.280 C 358.771 312.531,357.681 312.715,357.387 313.640 M54.119 317.304 C 48.379 318.463,52.018 318.890,67.903 318.924 C 82.762 318.955,84.799 318.756,82.600 317.489 C 81.676 316.957,56.646 316.794,54.119 317.304 M243.400 317.224 C 242.740 317.412,241.300 317.697,240.200 317.856 L 238.200 318.146 241.000 318.514 C 245.930 319.161,254.630 318.896,253.855 318.122 C 252.910 317.176,245.729 316.560,243.400 317.224 M285.302 317.371 C 281.993 318.023,281.873 318.268,284.666 318.667 C 288.854 319.263,298.582 318.849,297.839 318.105 C 296.762 317.029,289.266 316.589,285.302 317.371 M261.672 317.595 C 260.061 317.775,258.658 318.008,258.554 318.113 C 258.189 318.478,266.023 318.872,268.068 318.591 C 272.677 317.957,266.718 317.029,261.672 317.595 " stroke="none" fill="#f4f4f4" fill-rule="evenodd"></path><path id="path2" d="M38.880 113.280 C 38.120 114.040,38.284 114.247,40.240 114.994 C 42.407 115.822,44.356 114.793,43.218 113.422 C 42.599 112.676,39.583 112.577,38.880 113.280 " stroke="none" fill="#ececec" fill-rule="evenodd"></path><path id="path3" d="" stroke="none" fill="#e4e4e4" fill-rule="evenodd"></path><path id="path4" d="" stroke="none" fill="#100f8fc" fill-rule="evenodd"></path></g></svg>